<svg xmlns="http://www.w3.org/2000/svg" width="40" height="40" fill="none" viewBox="0 0 40 40">
    <path fill="#47433f"
        d="M19.966 29.893a2.2 2.2 0 0 1-.915-.195c-.29-.13-.553-.32-.775-.56l-8.174-8.822a7.6 7.6 0 0 1-1.499-2.46 8 8 0 0 1-.501-2.894 7.4 7.4 0 0 1 .506-2.642 7 7 0 0 1 1.406-2.231c.6-.637 1.311-1.14 2.091-1.479s1.615-.51 2.457-.5a6 6 0 0 1 2.497.518 6.4 6.4 0 0 1 2.113 1.528l.794.857.65-.702c1.124-1.245 2.628-2.009 4.233-2.149s3.203.352 4.497 1.386a7 7 0 0 1 1.782 2.274 7.582 7.582 0 0 1 .353 5.81 7.2 7.2 0 0 1-1.492 2.504l-8.333 9.003c-.221.24-.485.43-.775.559a2.2 2.2 0 0 1-.915.195M14.53 9.813c-1.261 0-2.474.528-3.38 1.474a5.2 5.2 0 0 0-1.082 1.694 5.5 5.5 0 0 0-.379 2.015 6.2 6.2 0 0 0 .392 2.224 5.8 5.8 0 0 0 1.156 1.888l8.173 8.823q.112.121.259.187a.74.74 0 0 0 .61 0 .8.8 0 0 0 .258-.187l8.341-9.012c.49-.54.868-1.184 1.11-1.893a5.75 5.75 0 0 0 .295-2.218 5.6 5.6 0 0 0-.57-2.176 5.2 5.2 0 0 0-1.359-1.722 4.8 4.8 0 0 0-3.427-1.045c-1.222.112-2.365.7-3.215 1.653l-1.183 1.311a.8.8 0 0 1-.258.188.74.74 0 0 1-.61 0 .8.8 0 0 1-.259-.188l-1.349-1.456c-.929-.994-2.183-1.554-3.491-1.56z" />
    <path fill="#47433f"
        d="M14.56 8c.87-.01 1.734.17 2.538.527a6.5 6.5 0 0 1 2.146 1.553l.722.778.579-.624c1.14-1.263 2.666-2.038 4.295-2.18a6.4 6.4 0 0 1 4.317 1.216l.249.19.002.002a7.1 7.1 0 0 1 1.81 2.308 7.7 7.7 0 0 1 .359 5.899 7.3 7.3 0 0 1-1.517 2.544l-8.332 9.003c-.232.25-.506.448-.809.583a2.3 2.3 0 0 1-.953.201c-.327 0-.651-.066-.953-.201a2.5 2.5 0 0 1-.808-.583l-8.175-8.824a7.7 7.7 0 0 1-1.52-2.495A8.1 8.1 0 0 1 8 14.96l.011-.345a7.5 7.5 0 0 1 .504-2.339c.333-.849.82-1.619 1.429-2.265a6.5 6.5 0 0 1 2.124-1.503A6.1 6.1 0 0 1 14.56 8m.002.11a6 6 0 0 0-2.457.5c-.78.34-1.49.842-2.09 1.479l-.22.244a7 7 0 0 0-1.187 1.987l-.116.316a7.4 7.4 0 0 0-.39 2.326l.004.371a8 8 0 0 0 .497 2.523c.344.919.853 1.755 1.499 2.46l8.174 8.823c.221.24.485.43.775.559a2.23 2.23 0 0 0 1.608.085l.222-.085q.328-.147.601-.39l.174-.17 8.333-9.002a7.1 7.1 0 0 0 1.361-2.156l.131-.349a7.6 7.6 0 0 0 .417-2.57l-.013-.376a7.5 7.5 0 0 0-.6-2.527l-.157-.336a7 7 0 0 0-1.782-2.274c-1.294-1.034-2.892-1.526-4.497-1.386l-.3.034c-1.491.204-2.879.947-3.932 2.115l-.651.702-.794-.857a6.4 6.4 0 0 0-1.819-1.389l-.294-.139a6 6 0 0 0-2.497-.519m-.032 1.704h.032c1.308.005 2.562.565 3.491 1.559l1.35 1.456q.111.121.258.188.109.049.227.061l.078.005a.74.74 0 0 0 .505-.197l.058-.057 1.183-1.31c.797-.895 1.851-1.467 2.987-1.627l.228-.027a4.8 4.8 0 0 1 3.427 1.045 5.2 5.2 0 0 1 1.36 1.722c.332.672.526 1.415.569 2.176a5.75 5.75 0 0 1-.295 2.218l-.097.262a5.4 5.4 0 0 1-1.013 1.631l-8.34 9.012-.059.057a.743.743 0 0 1-.505.197v-.11a.65.65 0 0 0 .492-.221l8.34-9.012c.48-.528.85-1.16 1.088-1.854a5.6 5.6 0 0 0 .289-2.173 5.5 5.5 0 0 0-.558-2.132 5.1 5.1 0 0 0-1.33-1.685 4.7 4.7 0 0 0-3.359-1.025c-1.198.11-2.318.687-3.151 1.621l-1.183 1.31v.002a.9.9 0 0 1-.293.212.84.84 0 0 1-.913-.148l-.065-.064-1.349-1.456c-.854-.913-1.987-1.452-3.181-1.52l-.24-.008h-.031c-1.235-.001-2.423.517-3.311 1.444a5.1 5.1 0 0 0-1.058 1.657 5.4 5.4 0 0 0-.37 1.973 6 6 0 0 0 .383 2.183c.26.692.646 1.321 1.133 1.852l8.175 8.823q.097.106.225.164a.65.65 0 0 0 .267.058v.108l-.078-.004a.7.7 0 0 1-.153-.033l-.074-.029a.8.8 0 0 1-.201-.13l-.058-.057-8.174-8.823a5.8 5.8 0 0 1-1.05-1.627l-.105-.261a6.2 6.2 0 0 1-.392-2.224c0-.692.128-1.378.38-2.015a5.2 5.2 0 0 1 1.08-1.694c.85-.887 1.969-1.406 3.145-1.467z" />
</svg>