<svg width="40" height="40" viewBox="0 0 40 40" fill="none" xmlns="http://www.w3.org/2000/svg">
<path d="M19.966 31.3979C19.6521 31.3987 19.3412 31.3356 19.0511 31.2121C18.761 31.0886 18.4975 30.9072 18.2756 30.6784L10.1016 22.2564C9.45591 21.5839 8.94654 20.7857 8.6032 19.9083C8.25986 19.031 8.0894 18.092 8.10177 17.146C8.10799 16.2792 8.28014 15.4221 8.60835 14.6239C8.93656 13.8257 9.41438 13.1021 10.0144 12.4944C10.6145 11.8868 11.325 11.4071 12.1053 11.0828C12.8856 10.7586 13.7203 10.5961 14.5616 10.6047C15.418 10.5958 16.2674 10.7642 17.0594 11.0999C17.8514 11.4356 18.57 11.9318 19.1724 12.5589L19.966 13.3766L20.6167 12.7061C21.7404 11.5177 23.244 10.7891 24.849 10.6553C26.4541 10.5215 28.0518 10.9916 29.3463 11.9784C30.0831 12.5631 30.6907 13.3028 31.1284 14.1483C31.5661 14.9938 31.8239 15.9257 31.8847 16.8819C31.9456 17.8381 31.8079 18.7966 31.4811 19.6938C31.1542 20.5909 30.6456 21.406 29.9891 22.0847L21.6564 30.6784C21.4345 30.9072 21.171 31.0886 20.8809 31.2121C20.5908 31.3356 20.2799 31.3987 19.966 31.3979ZM14.5299 12.2319C13.2685 12.2306 12.0561 12.7349 11.1492 13.6383C10.6868 14.0966 10.3191 14.6465 10.0682 15.2549C9.81729 15.8633 9.68828 16.5177 9.68896 17.1787C9.682 17.9059 9.81521 18.6273 10.0808 19.301C10.3465 19.9747 10.7393 20.5874 11.2365 21.1035L19.4105 29.5255C19.4843 29.6021 19.572 29.6629 19.6687 29.7045C19.7654 29.746 19.8692 29.7673 19.9739 29.7673C20.0787 29.7673 20.1824 29.746 20.2791 29.7045C20.3758 29.6629 20.4636 29.6021 20.5374 29.5255L28.8781 20.9236C29.3676 20.4085 29.7459 19.7926 29.988 19.1161C30.2301 18.4397 30.3305 17.7181 30.2827 16.9989C30.2403 16.2722 30.0461 15.5636 29.7132 14.9215C29.3804 14.2793 28.9168 13.7189 28.3543 13.2785C27.3672 12.5286 26.1491 12.174 24.9271 12.2808C23.705 12.3876 22.5623 12.9485 21.7119 13.859L20.5295 15.1101C20.4557 15.1867 20.3679 15.2475 20.2712 15.289C20.1745 15.3305 20.0708 15.3519 19.966 15.3519C19.8612 15.3519 19.7575 15.3305 19.6608 15.289C19.5641 15.2475 19.4763 15.1867 19.4025 15.1101L18.0534 13.72C17.1242 12.7709 15.87 12.2364 14.5616 12.2319H14.5299Z" fill="#47433F"/>
<path d="M14.5606 10.5008C15.4305 10.4918 16.2935 10.6624 17.098 11.0034C17.9025 11.3444 18.6324 11.8487 19.2443 12.4858L19.9656 13.229L20.545 12.633C21.6856 11.427 23.2115 10.6875 24.8405 10.5516C26.3681 10.4242 27.8897 10.8357 29.1566 11.7131L29.4059 11.8948L29.4079 11.8959C30.1561 12.4895 30.7727 13.2407 31.2172 14.0991C31.6616 14.9576 31.924 15.904 31.9858 16.8749C32.0475 17.8457 31.9076 18.8192 31.5758 19.73C31.2439 20.6409 30.7269 21.4694 30.0603 22.1586L21.7275 30.7522C21.4964 30.9906 21.2218 31.1799 20.9195 31.3086C20.6171 31.4373 20.2928 31.5013 19.9656 31.5005C19.6387 31.5012 19.3148 31.4371 19.0127 31.3086C18.7105 31.1799 18.4358 30.9905 18.2047 30.7522L10.0296 22.3292C9.37469 21.647 8.85838 20.8372 8.51009 19.9473C8.16179 19.0572 7.98813 18.1046 8.00063 17.145L8.01147 16.8161C8.05369 16.0484 8.2233 15.2929 8.51502 14.5834C8.84838 13.7727 9.33442 13.038 9.94388 12.4208C10.5534 11.8036 11.2749 11.3155 12.0675 10.9861C12.8594 10.657 13.7067 10.4923 14.5606 10.5008ZM14.5616 10.6047C13.7203 10.5961 12.8856 10.7586 12.1053 11.0828C11.325 11.4071 10.6145 11.8868 10.0144 12.4944L9.79508 12.7274C9.29711 13.2839 8.89554 13.9255 8.60835 14.6239L8.49235 14.9255C8.23939 15.6362 8.10722 16.3875 8.10177 17.146L8.10607 17.5004C8.13511 18.3258 8.30278 19.1406 8.6032 19.9083C8.94654 20.7857 9.45591 21.5839 10.1016 22.2564L18.2756 30.6784C18.4975 30.9072 18.761 31.0886 19.0511 31.2121C19.3412 31.3356 19.6521 31.3987 19.966 31.3979C20.2013 31.3985 20.4349 31.3631 20.6594 31.2934L20.8809 31.2121C21.0985 31.1194 21.3009 30.9939 21.4822 30.8405L21.6564 30.6784L29.9891 22.0847C30.5634 21.4909 31.0249 20.7926 31.3502 20.0265L31.4811 19.6938C31.767 18.9089 31.908 18.0766 31.8981 17.2405L31.8847 16.8819C31.8315 16.0453 31.6275 15.2274 31.2842 14.4697L31.1284 14.1483C30.6907 13.3028 30.0831 12.5631 29.3463 11.9784C28.0518 10.9916 26.4541 10.5215 24.849 10.6553L24.5498 10.6876C23.0579 10.8822 21.6703 11.592 20.6167 12.7061L19.966 13.3766L19.1724 12.5589C18.6453 12.0102 18.0295 11.5613 17.3533 11.2329L17.0594 11.0999C16.2674 10.7642 15.418 10.5958 14.5616 10.6047ZM14.5299 12.2319H14.5616C15.87 12.2364 17.1242 12.7709 18.0534 13.72L19.4025 15.1101C19.4763 15.1867 19.5641 15.2475 19.6608 15.289C19.7333 15.3201 19.8099 15.34 19.8878 15.3479L19.966 15.3519C20.0708 15.3519 20.1745 15.3305 20.2712 15.289C20.3437 15.2579 20.4108 15.2155 20.4711 15.1641L20.5295 15.1101L21.7119 13.859C22.5091 13.0055 23.5631 12.4591 24.6986 12.306L24.9271 12.2808C26.1491 12.174 27.3672 12.5286 28.3543 13.2785C28.9168 13.7189 29.3804 14.2793 29.7132 14.9215C30.0461 15.5636 30.2403 16.2722 30.2827 16.9989C30.3305 17.7181 30.2301 18.4397 29.988 19.1161L29.8908 19.3665C29.6495 19.9447 29.3065 20.4729 28.8781 20.9236L20.5374 29.5255L20.479 29.5795C20.4187 29.6309 20.3516 29.6733 20.2791 29.7045C20.1824 29.746 20.0787 29.7673 19.9739 29.7673L19.9735 29.6638C20.0649 29.6638 20.1561 29.6452 20.2405 29.609C20.3249 29.5727 20.4018 29.5185 20.4662 29.4516L28.8068 20.8499C29.286 20.3455 29.6567 19.7424 29.8937 19.0802C30.1309 18.4176 30.2293 17.7105 30.1825 17.0059C30.1409 16.2943 29.9507 15.5991 29.6247 14.9702C29.2989 14.3417 28.8449 13.7932 28.2944 13.362C27.3271 12.6272 26.1335 12.2797 24.9361 12.3842C23.7384 12.4889 22.6182 13.0392 21.7847 13.9316L20.6022 15.1824L20.6012 15.1834C20.5181 15.2698 20.4185 15.3387 20.3095 15.3855C20.2007 15.4321 20.0835 15.4555 19.9656 15.4555C19.8477 15.4555 19.7306 15.4322 19.6217 15.3855C19.5399 15.3504 19.4641 15.3023 19.396 15.2444L19.331 15.1834L17.982 13.7935C17.1285 12.922 15.9954 12.4072 14.801 12.3426L14.5616 12.3355H14.53C13.2948 12.3342 12.1071 12.8287 11.219 13.7133C10.7666 14.1618 10.4063 14.6997 10.1607 15.2951C9.91508 15.8906 9.78951 16.5315 9.79015 17.1785C9.78333 17.8919 9.91385 18.601 10.1745 19.2619C10.4349 19.9224 10.8195 20.5235 11.3067 21.0296L19.4818 29.4516C19.5462 29.5185 19.623 29.5727 19.7074 29.609C19.7917 29.6451 19.8822 29.6637 19.9735 29.6638L19.9739 29.7673L19.8956 29.7633C19.8439 29.758 19.7927 29.7474 19.7429 29.7318L19.6687 29.7045C19.596 29.6732 19.5284 29.6311 19.468 29.5795L19.4105 29.5255L11.2365 21.1035C10.8013 20.6518 10.4462 20.1261 10.1863 19.5503L10.0808 19.301C9.81521 18.6273 9.682 17.9059 9.68896 17.1787C9.68828 16.5177 9.81729 15.8633 10.0682 15.2549C10.3191 14.6465 10.6868 14.0966 11.1492 13.6383C11.9993 12.7915 13.1178 12.2958 14.2935 12.238L14.5299 12.2319Z" fill="#47433F"/>
</svg>
