<svg width="150" height="80" viewBox="0 0 150 80" fill="none" xmlns="http://www.w3.org/2000/svg">
<g clip-path="url(#clip0_38_259)">
<rect width="150" height="80" fill="white"/>
<path d="M28.7091 39.9357H29.6086L34.9094 28.8201H38.8609L27.8738 51.758H23.9544L27.2313 44.8831L18.75 28.8201H22.8621L28.7091 39.9357Z" fill="black"/>
<path d="M39.1435 51.758V35.4059H51.8975V38.49H42.7737V51.758H39.1435Z" fill="black"/>
<path d="M55.3776 37.3977C56.8769 35.7914 58.8901 34.9883 61.4173 34.9883C63.9446 34.9883 65.9471 35.7914 67.4249 37.3977C68.9241 38.9826 69.6737 41.0387 69.6737 43.5659C69.6737 46.1146 68.9241 48.192 67.4249 49.7983C65.9471 51.3832 63.9446 52.1757 61.4173 52.1757C58.8901 52.1757 56.8769 51.3832 55.3776 49.7983C53.8998 48.192 53.1609 46.1146 53.1609 43.5659C53.1609 41.0387 53.8998 38.9826 55.3776 37.3977ZM57.9798 47.5174C58.7723 48.5668 59.9181 49.0916 61.4173 49.0916C62.9165 49.0916 64.0624 48.5668 64.8548 47.5174C65.6472 46.4465 66.0435 45.1294 66.0435 43.5659C66.0435 42.0238 65.6472 40.7281 64.8548 39.6787C64.0624 38.6078 62.9165 38.0724 61.4173 38.0724C59.9181 38.0724 58.7723 38.6078 57.9798 39.6787C57.1874 40.7281 56.7912 42.0238 56.7912 43.5659C56.7912 45.1294 57.1874 46.4465 57.9798 47.5174Z" fill="black"/>
<path d="M71.3234 51.758V48.3205H71.9017C73.0368 48.3205 73.84 47.8708 74.3111 46.9713C74.7823 46.0717 75.0179 44.4226 75.0179 42.0238V35.4059H88.2538V51.758H84.6236V38.49H78.359V42.1202C78.359 45.6541 77.845 48.1492 76.817 49.6056C75.8103 51.0405 74.1719 51.758 71.9017 51.758H71.3234Z" fill="black"/>
<path d="M93.8736 37.3977C95.3728 35.7914 97.386 34.9883 99.9133 34.9883C102.441 34.9883 104.443 35.7914 105.921 37.3977C107.42 38.9826 108.17 41.0387 108.17 43.5659C108.17 46.1146 107.42 48.192 105.921 49.7983C104.443 51.3832 102.441 52.1757 99.9133 52.1757C97.386 52.1757 95.3728 51.3832 93.8736 49.7983C92.3958 48.192 91.6569 46.1146 91.6569 43.5659C91.6569 41.0387 92.3958 38.9826 93.8736 37.3977ZM96.4758 47.5174C97.2682 48.5668 98.4141 49.0916 99.9133 49.0916C101.412 49.0916 102.558 48.5668 103.351 47.5174C104.143 46.4465 104.539 45.1294 104.539 43.5659C104.539 42.0238 104.143 40.7281 103.351 39.6787C102.558 38.6078 101.412 38.0724 99.9133 38.0724C98.4141 38.0724 97.2682 38.6078 96.4758 39.6787C95.6834 40.7281 95.2871 42.0238 95.2871 43.5659C95.2871 45.1294 95.6834 46.4465 96.4758 47.5174Z" fill="black"/>
<path d="M122.895 51.758L119.425 44.9152H115.217V51.758H111.586V35.4059H115.217V41.8311H119.489L122.766 35.4059H126.493L122.477 43.2768L126.718 51.758H122.895Z" fill="black"/>
<path d="M130.314 38.53L128.74 36.4822H128.739V30.9705H123.228V30.9695L121.181 29.3962L123.228 27.821H131.889L131.89 36.4822L130.314 38.53Z" fill="#0084FF"/>
</g>
<defs>
<clipPath id="clip0_38_259">
<rect width="150" height="80" fill="white"/>
</clipPath>
</defs>
</svg>
