<svg width="40" height="40" viewBox="0 0 40 40" fill="none" xmlns="http://www.w3.org/2000/svg">
<path d="M25.9825 20.8014C26.2042 20.8014 26.4171 20.8887 26.5738 21.0441C26.7306 21.1995 26.8186 21.4106 26.8186 21.6304C26.8186 21.8502 26.7305 22.0612 26.5738 22.2167C26.4171 22.3721 26.2042 22.4594 25.9825 22.4594H14.4156C14.3058 22.4594 14.1967 22.4381 14.0952 22.3964C13.994 22.3548 13.9018 22.2935 13.8243 22.2167C13.7467 22.1397 13.685 22.0485 13.643 21.948C13.601 21.8474 13.5795 21.7392 13.5795 21.6304C13.5795 21.5218 13.6011 21.4141 13.643 21.3138C13.685 21.2132 13.7467 21.1211 13.8243 21.0441C13.9017 20.9673 13.9941 20.9069 14.0952 20.8653C14.1967 20.8237 14.3058 20.8014 14.4156 20.8014H25.9825Z" fill="#47433F"/>
<path d="M28.6016 15.424C28.8154 15.4348 29.0171 15.5268 29.1646 15.6807C29.3122 15.8347 29.3943 16.0395 29.3943 16.252C29.3943 16.4645 29.3122 16.6692 29.1646 16.8233C29.0171 16.9771 28.8154 17.0691 28.6016 17.08H14.331C14.2464 17.0757 14.1629 17.0583 14.0832 17.029C13.9769 16.99 13.8792 16.9306 13.7971 16.8532C13.7149 16.7758 13.6494 16.6819 13.6047 16.5786C13.5601 16.4754 13.5372 16.3642 13.5372 16.252C13.5372 16.1397 13.56 16.0286 13.6047 15.9254C13.6494 15.8221 13.7149 15.7281 13.7971 15.6507C13.8792 15.5734 13.9769 15.5139 14.0832 15.4749C14.1629 15.4457 14.2464 15.4282 14.331 15.424H28.6016Z" fill="#47433F"/>
<path fill-rule="evenodd" clip-rule="evenodd" d="M32.6499 8.70524C33.2173 8.70808 33.7606 8.93277 34.1619 9.33047C34.5632 9.72837 34.7906 10.2679 34.7935 10.8306V27.8667C34.7912 28.4292 34.5642 28.9682 34.1629 29.3659C33.7614 29.7636 33.2174 29.9884 32.6499 29.9901H19.8913L14.5949 35.0279C14.4814 35.1511 14.3326 35.2367 14.1688 35.2746C14.0049 35.3126 13.833 35.3003 13.6762 35.2397C13.5195 35.179 13.3851 35.0729 13.2904 34.935C13.1957 34.7971 13.1448 34.6335 13.1454 34.4666V29.9901H10.3501C9.78292 29.9873 9.23932 29.7623 8.83808 29.3649C8.43694 28.9675 8.20994 28.429 8.2065 27.8667V10.8306C8.21106 10.2684 8.43815 9.73001 8.83909 9.33247C9.24003 8.93493 9.78307 8.70976 10.3501 8.70524H32.6499ZM10.3501 10.3632C10.226 10.367 10.1076 10.4172 10.0197 10.504C9.93182 10.5908 9.87999 10.7078 9.87562 10.8306V27.8667C9.87732 27.9905 9.92822 28.109 10.0166 28.1963C10.1051 28.2837 10.2252 28.333 10.3501 28.3341H13.9814C14.2026 28.3348 14.4145 28.4226 14.5707 28.5778C14.727 28.7332 14.8144 28.9437 14.8145 29.1631V32.528L18.9817 28.5659C19.1364 28.4199 19.3413 28.3373 19.5549 28.3361H32.6499C32.7118 28.3364 32.773 28.3245 32.8302 28.3012C32.8876 28.2778 32.9405 28.2438 32.9844 28.2003C33.0281 28.1569 33.0626 28.1052 33.0861 28.0485C33.1097 27.9917 33.1217 27.9302 33.1214 27.8687V10.8306C33.1205 10.707 33.0699 10.588 32.9813 10.501C32.8932 10.414 32.7743 10.3647 32.6499 10.3632H10.3501Z" fill="#47433F"/>
<path d="M34.7935 10.8306C34.7906 10.2679 34.5632 9.72837 34.1619 9.33047C33.7606 8.93277 33.2173 8.70808 32.6499 8.70524H10.3501C9.78307 8.70976 9.24003 8.93493 8.83909 9.33247C8.43815 9.73001 8.21106 10.2684 8.2065 10.8306V27.8667C8.20994 28.429 8.43694 28.9675 8.83808 29.3649C9.23932 29.7623 9.78292 29.9873 10.3501 29.9901H13.1454V34.4666C13.1448 34.6335 13.1957 34.7971 13.2904 34.935C13.3851 35.0729 13.5195 35.179 13.6762 35.2397C13.833 35.3003 14.0049 35.3126 14.1688 35.2746C14.3326 35.2367 14.4814 35.1511 14.5949 35.0279L19.8913 29.9901H32.6499C33.2174 29.9884 33.7614 29.7636 34.1629 29.3659C34.5642 28.9682 34.7912 28.4292 34.7935 27.8667V10.8306ZM32.6499 10.3632C32.7743 10.3647 32.8932 10.414 32.9813 10.501C33.0699 10.588 33.1205 10.707 33.1214 10.8306V27.8687C33.1217 27.9302 33.1097 27.9917 33.0861 28.0485C33.0626 28.1052 33.0281 28.1569 32.9844 28.2003C32.9405 28.2438 32.8876 28.2778 32.8302 28.3012C32.773 28.3245 32.7118 28.3364 32.6499 28.3361H19.5549C19.3413 28.3373 19.1364 28.4199 18.9817 28.5659L14.8145 32.528V29.1631C14.8144 28.9437 14.727 28.7332 14.5707 28.5778C14.4145 28.4226 14.2026 28.3348 13.9814 28.3341H10.3501C10.2252 28.333 10.1051 28.2837 10.0166 28.1963C9.92822 28.109 9.87732 27.9905 9.87562 27.8667V10.8306C9.87999 10.7078 9.93182 10.5908 10.0197 10.504C10.1076 10.4172 10.226 10.367 10.3501 10.3632H32.6499ZM13.373 21.6304C13.373 21.495 13.4004 21.3609 13.4526 21.2359C13.5048 21.1109 13.5811 20.9955 13.6782 20.8993C13.7754 20.8029 13.8914 20.7281 14.0167 20.6765C14.1422 20.625 14.2779 20.5966 14.4156 20.5966V20.8014C14.3058 20.8014 14.1967 20.8237 14.0952 20.8653C13.9941 20.9069 13.9017 20.9673 13.8243 21.0441C13.7467 21.1211 13.685 21.2132 13.643 21.3138C13.6011 21.4141 13.5795 21.5218 13.5795 21.6304C13.5795 21.7392 13.601 21.8474 13.643 21.948C13.685 22.0485 13.7467 22.1397 13.8243 22.2167C13.9018 22.2935 13.994 22.3548 14.0952 22.3964C14.1967 22.4381 14.3058 22.4594 14.4156 22.4594H25.9825C26.2042 22.4594 26.4171 22.3721 26.5738 22.2167C26.7305 22.0612 26.8186 21.8502 26.8186 21.6304C26.8186 21.4106 26.7306 21.1995 26.5738 21.0441C26.4171 20.8887 26.2042 20.8014 25.9825 20.8014V20.5966C26.2588 20.5966 26.5244 20.7055 26.7199 20.8993C26.891 21.0689 26.9964 21.2919 27.0201 21.5285L27.0251 21.6304C27.0251 21.9043 26.9153 22.1676 26.7199 22.3615C26.5244 22.5553 26.2589 22.6641 25.9825 22.6641H14.4156C14.2791 22.6641 14.1433 22.6372 14.0167 22.5852C13.8902 22.5332 13.7748 22.4572 13.6782 22.3615C13.5817 22.2658 13.505 22.1514 13.4526 22.0259C13.4132 21.9316 13.388 21.8322 13.378 21.7312L13.373 21.6304ZM25.9825 20.5966V20.8014H14.4156V20.5966H25.9825ZM29.3943 16.252C29.3943 16.0395 29.3122 15.8347 29.1646 15.6807C29.0171 15.5268 28.8154 15.4348 28.6016 15.424H14.331C14.2464 15.4282 14.1629 15.4457 14.0832 15.4749C13.9769 15.5139 13.8792 15.5734 13.7971 15.6507C13.7149 15.7281 13.6494 15.8221 13.6047 15.9254C13.56 16.0286 13.5372 16.1397 13.5372 16.252C13.5372 16.3642 13.5601 16.4754 13.6047 16.5786C13.6494 16.6819 13.7149 16.7758 13.7971 16.8532C13.8792 16.9306 13.9769 16.99 14.0832 17.029C14.1629 17.0583 14.2464 17.0757 14.331 17.08H28.6016C28.8154 17.0691 29.0171 16.9771 29.1646 16.8233C29.3122 16.6692 29.3943 16.4645 29.3943 16.252ZM15.021 32.0476L18.8387 28.418C19.0311 28.2364 19.2873 28.1328 19.5539 28.1314H32.6509C32.6853 28.1315 32.7195 28.1255 32.7517 28.1124C32.7855 28.0986 32.815 28.0786 32.8383 28.0555C32.8624 28.0315 32.8824 28.0028 32.8957 27.9706C32.9088 27.9391 32.915 27.9044 32.9149 27.8697V10.8316C32.9143 10.7624 32.8859 10.6957 32.8363 10.6469L32.8353 10.6459C32.7978 10.6089 32.7507 10.5834 32.6993 10.5729L32.6469 10.568H10.3561L10.3027 10.5739C10.251 10.5854 10.2035 10.6117 10.1657 10.6489C10.1147 10.6993 10.0847 10.7671 10.0821 10.8376V27.8637L10.0882 27.9157C10.0991 27.9665 10.1248 28.0141 10.1627 28.0515C10.2127 28.1008 10.2806 28.1288 10.3521 28.1294H13.9824C14.2582 28.1303 14.5223 28.2398 14.7168 28.433L14.7863 28.5089C14.9377 28.6928 15.0209 28.924 15.021 29.1631V32.0476ZM29.5958 16.3509C29.5737 16.5796 29.4749 16.7959 29.3137 16.9641C29.1298 17.1558 28.8783 17.2712 28.6116 17.2847H14.3209C14.2145 17.2794 14.1102 17.2569 14.0116 17.2208C13.8801 17.1725 13.7581 17.099 13.6551 17.0021C13.5524 16.9053 13.4708 16.7876 13.4153 16.6595C13.3736 16.563 13.3464 16.4607 13.3357 16.3568L13.3307 16.252C13.3307 16.1122 13.3596 15.9733 13.4153 15.8445C13.4709 15.7162 13.5523 15.5987 13.6551 15.5019C13.758 15.405 13.8801 15.3314 14.0116 15.2832C14.1101 15.2471 14.2145 15.2245 14.3209 15.2192H28.6116C28.8783 15.2328 29.1298 15.3482 29.3137 15.5398C29.4979 15.7321 29.6008 15.9874 29.6008 16.252L29.5958 16.3509ZM35 27.8677C34.9974 28.4843 34.7486 29.075 34.309 29.5107C33.8692 29.9463 33.2729 30.1929 32.6509 30.1949H19.9749L14.7379 35.1757L14.7369 35.1747C14.5962 35.3234 14.4153 35.4271 14.2161 35.4734C14.0117 35.5207 13.7971 35.5059 13.6017 35.4304C13.4061 35.3548 13.2383 35.2219 13.1202 35.0499C13.0022 34.8781 12.9381 34.6741 12.9389 34.4656V30.1949H10.3491C9.72753 30.1917 9.13164 29.9451 8.69202 29.5097C8.2525 29.0742 8.00377 28.4838 8 27.8677V10.8286C8.00509 10.213 8.25382 9.62313 8.69303 9.18764C9.13224 8.75216 9.72714 8.50553 10.348 8.50049H32.6509C33.2727 8.5036 33.8683 8.74986 34.308 9.18565C34.7476 9.62158 34.9969 10.2129 35 10.8296V27.8677Z" fill="#47433F"/>
</svg>
