<svg xmlns="http://www.w3.org/2000/svg" width="40" height="40" fill="none" viewBox="0 0 40 40">
    <path fill="#47433f"
        d="M24.983 20.3a.84.84 0 0 1 .59.244.826.826 0 0 1 0 1.172.84.84 0 0 1-.59.243H13.416a.84.84 0 0 1-.592-.243.83.83 0 0 1-.245-.586.82.82 0 0 1 .516-.765.9.9 0 0 1 .32-.064zM27.602 14.924a.84.84 0 0 1 .563.256.826.826 0 0 1 0 1.143.84.84 0 0 1-.563.256H13.33a.84.84 0 0 1-.794-.828.82.82 0 0 1 .26-.6.84.84 0 0 1 .534-.227z" />
    <path fill="#47433f" fill-rule="evenodd"
        d="M31.65 8.205c.567.003 1.11.227 1.512.625s.629.937.632 1.5v17.036a2.12 2.12 0 0 1-.631 1.5 2.16 2.16 0 0 1-1.513.624H18.89l-5.296 5.037a.835.835 0 0 1-.919.212.83.83 0 0 1-.53-.773V29.49H9.35a2.17 2.17 0 0 1-1.512-.626 2.13 2.13 0 0 1-.631-1.498V10.33c.004-.562.231-1.1.632-1.498s.944-.623 1.511-.627zM9.35 9.863a.484.484 0 0 0-.474.467v17.036a.473.473 0 0 0 .474.468h3.631a.84.84 0 0 1 .59.243.83.83 0 0 1 .244.586v3.365l4.167-3.963a.84.84 0 0 1 .573-.23H31.65a.47.47 0 0 0 .436-.287.5.5 0 0 0 .035-.18V10.33a.47.47 0 0 0-.14-.33.48.48 0 0 0-.331-.137z"
        clip-rule="evenodd" />
    <path fill="#47433f"
        d="M33.794 10.33a2.13 2.13 0 0 0-.632-1.5 2.16 2.16 0 0 0-1.512-.625H9.35c-.567.004-1.11.23-1.51.627-.402.398-.629.936-.633 1.498v17.036c.003.563.23 1.101.631 1.498.401.398.945.623 1.512.626h2.795v4.476a.82.82 0 0 0 .531.773.84.84 0 0 0 .919-.212l5.296-5.037H31.65a2.16 2.16 0 0 0 1.513-.625c.401-.397.628-.936.63-1.499zm-2.144-.467a.48.48 0 0 1 .331.138c.089.087.14.206.14.33v17.037a.464.464 0 0 1-.471.468H18.555a.84.84 0 0 0-.573.23l-4.167 3.962v-3.365c0-.22-.088-.43-.244-.586a.84.84 0 0 0-.59-.243h-3.63a.473.473 0 0 1-.474-.468V10.33a.484.484 0 0 1 .473-.467zM12.373 21.13a1.02 1.02 0 0 1 .305-.731 1.051 1.051 0 0 1 .737-.303v.205a.85.85 0 0 0-.59.243.83.83 0 0 0-.245.586.825.825 0 0 0 .515.766q.154.063.32.063h11.568a.84.84 0 0 0 .59-.243.826.826 0 0 0-.59-1.415v-.205c.276 0 .541.109.737.303.171.17.276.392.3.629l.005.102c0 .274-.11.537-.305.731a1.05 1.05 0 0 1-.737.303H13.416a1.05 1.05 0 0 1-.738-.303 1.03 1.03 0 0 1-.3-.63zm12.61-1.034v.205H13.416v-.205zm3.411-4.344a.83.83 0 0 0-.23-.572.84.84 0 0 0-.562-.256H13.33a.84.84 0 0 0-.726.5.82.82 0 0 0 .192.929.84.84 0 0 0 .534.226h14.27a.84.84 0 0 0 .564-.256.83.83 0 0 0 .23-.572M14.021 31.547l3.818-3.63c.192-.181.448-.285.715-.286H31.65a.26.26 0 0 0 .245-.16.3.3 0 0 0 .019-.102V10.331a.26.26 0 0 0-.079-.185.27.27 0 0 0-.137-.074l-.052-.004H9.357l-.054.005a.28.28 0 0 0-.22.264v17.026l.005.052a.27.27 0 0 0 .264.214h3.63c.276 0 .54.11.735.303l.07.076c.15.184.234.416.234.655zM28.596 15.85a1.03 1.03 0 0 1-.282.614 1.05 1.05 0 0 1-.702.32H13.32a1.05 1.05 0 0 1-.906-.625 1 1 0 0 1-.08-.303l-.004-.104a1.03 1.03 0 0 1 .68-.97 1 1 0 0 1 .31-.063h14.29c.267.013.519.129.703.32.184.193.287.448.287.713zM34 27.367a2.33 2.33 0 0 1-.691 1.643 2.37 2.37 0 0 1-1.658.684H18.975l-5.237 4.981h-.001a1.041 1.041 0 0 1-1.798-.71v-4.27h-2.59a2.37 2.37 0 0 1-1.657-.686A2.33 2.33 0 0 1 7 27.367V10.328a2.34 2.34 0 0 1 .693-1.64A2.38 2.38 0 0 1 9.348 8h22.303c.622.003 1.217.25 1.657.685s.689 1.027.692 1.644z" />
</svg>