<svg xmlns="http://www.w3.org/2000/svg" aria-hidden="true"
    style="position:absolute;width:0;height:0;overflow:hidden">
    <symbol
        id="parking"
        xmlns="http://www.w3.org/2000/svg"
        fill="none"
        viewBox="0 0 45 45"
    >
        <path
            fill="currentColor"
            d="M24.137 11.5h-9.2084c-.2677 0-.4286.2145-.4286.4845v21.0223c0 .2699.1609.4932.4286.4932h3.8788c.2677 0 .5411-.2233.5411-.4932v-7.329h4.7885c3.4775 0 6.363-2.8553 6.363-6.3597v-1.4669c0-3.5046-2.8855-6.3512-6.363-6.3512m5.3933 7.8181c0 2.9651-2.4504 5.3819-5.3933 5.3819h-5.3296c-.2677 0-.4286.2145-.4286.4845v7.3377h-2.9091V12.4778h8.6673c2.9429 0 5.3933 2.4081 5.3933 5.3734z"
        />
        <path
            fill="currentColor"
            d="M23.4107 14.9221h-4.6023c-.2677 0-.4286.2145-.4286.4845v6.3555c0 .27.1609.4933.4286.4933h4.6023c2.0071 0 3.6401-1.6448 3.6401-3.6667s-1.633-3.6666-3.6401-3.6666m0 6.3556h-4.0612v-5.3778h4.0612c1.4725 0 2.6705 1.2062 2.6705 2.6889s-1.198 2.6889-2.6705 2.6889"
        />
    </symbol>
    <symbol id="coffee" fill="none" viewBox="0 0 45 45">
        <path
            fill="currentColor"
            d="M33.2724 20.1902c-.7189-.7184-1.523-.8528-2.2229-.7169l.0536-.2935c0-.2891 0-.7227-.2893-1.0118s-.5784-.4336-1.0124-.4336H12.3016c-.4338 0-.7231.1445-1.0124.4336S11 18.7461 11 19.1798l1.157 6.3598c.5785 3.4691 3.6156 6.0708 7.2313 6.0708h3.3264c3.6026 0 6.6267-2.4413 7.2211-6.0332.2575.0621.4975.107.7332.107 1.1571 0 2.1694-.5782 2.7479-1.59.8679-1.3023.7233-3.0367-.1445-3.904M22.7147 30.3081h-3.3264c-2.8925 0-5.3512-2.0236-5.7851-4.9144l-1.0123-6.0708H29.512l-1.0124 6.0708c-.4338 2.8909-2.8923 4.9144-5.7849 4.9144m9.4007-7.0825c-.2488.4987-.8229.9931-1.9019.8442l.5771-3.1727c.3181-.1908.781-.3831 1.3247.1604.4339.4336.4339 1.0001 2.168116.9297 14.98670 .8673.4338 1.4454.4338 1.5899.1446.1446.2892.2891.5785.2891h.4338c.4339-.2891.4339-.7227.2892-1.0118 0 0-.2892-.4336-.2892-.8673s.2892-.8673.2892-.8673.4339-.7227.4339-1.5899-.4339-1.4454-.4339-1.5899c-.2892-.4336-.7231-.4336-1.0124-.2891-.4338.2891-.4338.7227-.2892 1.0118 0 0 .2892.4336.2892.8673s-.2892.8673-.2892.8673-.4337.7226-.4337 1.5899M20.1114 14.9867c0 .8673.4339 1.5899.4339 1.5899.1446.1446.2892.2891.5785.2891h.4338c.4338-.2891.4338-.7227.2892-1.0118 0 0-.2892-.4336-.2892-.8673s.2892-.8673.2892-.8673.4339-.7227.4339-1.5899-.4339-1.4454-.4339-1.5899c-.2892-.4336-.7231-.4336-1.0124-.2891-.4338.2891-.4338.7227-.2892 1.0118 0 0 .2892.4336.2892.8673s-.2892.8673-.2892.8673-.4338.7226-.4338 1.5899M23.2932 14.9867c0 .8673.4339 1.5899.4339 1.5899.1446.1446.2892.2891.5784.2891h.4339c.4338-.2891.4338-.7227.2892-1.0118 0 0-.2892-.4336-.2892-.8673s.2892-.8673.2892-.8673.4339-.7227.4339-1.5899-.4339-1.4454-.4339-1.5899c-.2892-.4336-.5784-.5782-1.0124-.2891-.4338.2891-.4338.7227-.2892 1.0118 0 0 .2892.4336.2892.8673s-.2892.8673-.2892.8673-.4338.7226-.4338 1.5899M30.5245 33.0545H11.7232c-.4339 0-.7232.2891-.7232.7228 0 .4335.2892.7227.7232.7227h18.8013c.4339 0 .7232-.2891.7232-.7227-.0001-.4337-.2893-.7228-.7232-.7228"
        />
    </symbol>
    <symbol id="printer" fill="none" viewBox="0 0 45 45">
        <path
            fill="currentColor"
            d="M28.7069 28.9H16.2931v.9885h12.4138zM28.7069 31.3H16.2931v1.0815h12.4138z"
        />
        <path
            fill="currentColor"
            d="M32.0172 17.7H30.362v-5.6c0-.88-.7448-1.6-1.6551-1.6H16.2931c-.9104 0-1.6552.72-1.6552 1.6v5.6h-1.6551c-1.407 0-2.4828 1.04-2.4828 2.4v7.2c0 1.36 1.0758 2.4 2.4828 2.4h1.6551v3.2c0 .88.7448 1.6 1.6552 1.6h12.4138c.9103 0 1.6552-.72 1.6552-1.6v-3.2h1.6551c1.407 0 2.4828-1.04 2.4828-2.4v-7.2c0-1.36-1.0759-2.4-2.4828-2.4M15.9 12.1c0-.4.1034-.4.6-.4h12.2069c.4137 0 .3931-.08.3931.4v5.6H15.9zm13.2 20.6c0 .4.1034.6-.3931.6H16.5c-.4138 0-.6-.12-.6-.6v-4.8h13.2zm4.2-5.4c0 .88-.2897 1.2-1.2 1.2h-1.2l-.538-2H14.6379l-.5379 2h-1.2c-.9104 0-1.2-.32-1.2-1.2v-7.2c0-.88.2896-1.2 1.2-1.2h19.2c.9103 0 1.2.32 1.2 1.2z"
        />
    </symbol>
    <symbol id="wifi" xmlns="http://www.w3.org/2000/svg" fill="none"
        viewBox="0 0 45 45">
        <path fill="currentColor" fill-rule="evenodd"
            d="M22.5 28c.53 0 1.003.235 1.324.606L22.5 29.75l-1.318-1.154A1.76 1.76 0 0 1 22.5 28m0-4.25c1.729 0 3.343.9 4.279 2.307l-1.149.99a3.68 3.68 0 0 0-3.13-1.797c-1.27 0-2.47.703-3.115 1.773l-1.141-1c.939-1.385 2.544-2.273 4.256-2.273m.005-4.375c2.768 0 5.813 1.69 7.288 4.069l-1.152 1c-1.134-2.033-3.798-3.569-6.136-3.569-2.32 0-4.967 1.518-6.115 3.531l-1.145-1.004c1.486-2.355 4.513-4.027 7.26-4.027M22.507 15c4.119 0 8.425 2.364 10.626 5.55l-1.143.99c-1.886-2.849-5.801-5.04-9.483-5.04-3.65 0-7.515 2.153-9.444 4.991l-1.133-.994C14.166 17.326 18.42 15 22.507 15"
            clip-rule="evenodd" />
    </symbol>
    <symbol id="beauty" fill="none" viewBox="0 0 45 45">
        <path
            fill="currentColor"
            d="M35.8138 29.2143c-.1397-.0953-3.0259-2.4762-6.7035-2.5238l.5587-.5715c3.1189-3.4285 3.0724-8.9523 3.0258-9.1904 0-.2381-.1862-.4762-.4655-.4762-.1396 0-3.3052-.0476-6.1914 1.5714-.9776-3.1428-3.0724-5.2857-3.212-5.3809-.1862-.1905-.4656-.1905-.6518 0-.1396.0952-2.2344 2.2857-3.3051 5.3333-2.8862-1.6191-6.0518-1.5714-6.1914-1.5714a.4716.4716 0 0 0-.4655.4762c0 .238-.0931 5.7619 3.0258 9.1904l.5587.5715c-3.6776.0476-6.5638 2.4285-6.7035 2.5238-.0465.1428-.0931.2857-.0931.4285 0 .1429.0465.2858.1862.381.0931.0952 3.0724 2.5238 6.7966 2.5238 3.1189 0 5.6793-1.7143 6.5172-2.3333.8379.619 3.3983 2.3333 6.5172 2.3333 3.7242 0 6.7035-2.4286 6.7966-2.5714.0931-.0953.1862-.2381.1862-.381s-.0466-.2381-.1862-.3333m-4.0035-11.8572c-.0465 1.381-.4189 5.4762-2.7931 8.0477-1.35 1.4762-2.8396 2.5714-4.1896 3.1904 1.1172-1.5714 1.8621-4.2381 1.8621-7.3333 0-.8095-.1397-1.619-.3259-2.3809 2.0948-1.2381 4.469-1.4762 5.4465-1.5239M22.5 13.6905c.8845 1 3.2586 4.0476 3.2586 7.619 0 4.5715-1.5827 7.6667-3.1655 7.8095h-.2328c-1.5362-.1904-3.1189-3.2857-3.1189-7.8571 0-3.5238 2.3741-6.5714 3.2586-7.5714m-9.3103 3.6666c.9775.0477 3.3051.2858 5.4 1.5239-.1863.7619-.3259 1.5714-.3259 2.3809 0 3.0952.7448 5.7619 1.8621 7.3333-1.35-.619-2.8397-1.7142-4.1897-3.1904-2.3276-2.5715-2.7-6.6667-2.7465-8.0477m-2.9328 12.2381c.9776-.6666 3.1655-1.9523 5.7259-1.9523.3258 0 .6982.0476 1.0241.0476 1.3965 1.1905 2.8862 1.9524 4.1897 2.2381-1.1638.7143-3.0725 1.619-5.2138 1.619-2.5604 0-4.7483-1.2857-5.7259-1.9524m18.7603 1.9524c-2.1413 0-4.05-.9047-5.1672-1.619 1.3035-.2857 2.7466-1.0953 4.1897-2.2381.3258-.0476.6517-.0476.9775-.0476 2.5604 0 4.7483 1.2857 5.7259 1.9523-.9776.6667-3.1655 1.9524-5.7259 1.9524"
        />
    </symbol>
    <symbol fill="none" viewBox="0 0 45 45">
        <path
            fill="currentColor"
            d="M35.8138 29.2143c-.1397-.0953-3.0259-2.4762-6.7035-2.5238l.5587-.5715c3.1189-3.4285 3.0724-8.9523 3.0258-9.1904 0-.2381-.1862-.4762-.4655-.4762-.1396 0-3.3052-.0476-6.1914 1.5714-.9776-3.1428-3.0724-5.2857-3.212-5.3809-.1862-.1905-.4656-.1905-.6518 0-.1396.0952-2.2344 2.2857-3.3051 5.3333-2.8862-1.6191-6.0518-1.5714-6.1914-1.5714a.4716.4716 0 0 0-.4655.4762c0 .238-.0931 5.7619 3.0258 9.1904l.5587.5715c-3.6776.0476-6.5638 2.4285-6.7035 2.5238-.0465.1428-.0931.2857-.0931.4285 0 .1429.0465.2858.1862.381.0931.0952 3.0724 2.5238 6.7966 2.5238 3.1189 0 5.6793-1.7143 6.5172-2.3333.8379.619 3.3983 2.3333 6.5172 2.3333 3.7242 0 6.7035-2.4286 6.7966-2.5714.0931-.0953.1862-.2381.1862-.381s-.0466-.2381-.1862-.3333m-4.0035-11.8572c-.0465 1.381-.4189 5.4762-2.7931 8.0477-1.35 1.4762-2.8396 2.5714-4.1896 3.1904 1.1172-1.5714 1.8621-4.2381 1.8621-7.3333 0-.8095-.1397-1.619-.3259-2.3809 2.0948-1.2381 4.469-1.4762 5.4465-1.5239M22.5 13.6905c.8845 1 3.2586 4.0476 3.2586 7.619 0 4.5715-1.5827 7.6667-3.1655 7.8095h-.2328c-1.5362-.1904-3.1189-3.2857-3.1189-7.8571 0-3.5238 2.3741-6.5714 3.2586-7.5714m-9.3103 3.6666c.9775.0477 3.3051.2858 5.4 1.5239-.1863.7619-.3259 1.5714-.3259 2.3809 0 3.0952.7448 5.7619 1.8621 7.3333-1.35-.619-2.8397-1.7142-4.1897-3.1904-2.3276-2.5715-2.7-6.6667-2.7465-8.0477m-2.9328 12.2381c.9776-.6666 3.1655-1.9523 5.7259-1.9523.3258 0 .6982.0476 1.0241.0476 1.3965 1.1905 2.8862 1.9524 4.1897 2.2381-1.1638.7143-3.0725 1.619-5.2138 1.619-2.5604 0-4.7483-1.2857-5.7259-1.9524m18.7603 1.9524c-2.1413 0-4.05-.9047-5.1672-1.619 1.3035-.2857 2.7466-1.0953 4.1897-2.2381.3258-.0476.6517-.0476.9775-.0476 2.5604 0 4.7483 1.2857 5.7259 1.9523-.9776.6667-3.1655 1.9524-5.7259 1.9524"
        />
    </symbol>
    <symbol id="conference" fill="none" viewBox="0 0 45 45">
        <path
            fill="currentColor"
            d="M15.9511 18.3661c1.3054 0 2.3759-1.0893 2.3759-2.4375s-1.0618-2.4375-2.3759-2.4375-2.3672 1.0982-2.3672 2.4375 1.0618 2.4375 2.3672 2.4375m0-3.9465c.8094 0 1.4795.6786 1.4795 1.5179s-.6614 1.5179-1.4795 1.5179-1.4795-.6786-1.4795-1.5179.6701-1.5179 1.4795-1.5179M18.7621 21.1875c-.2437-.0179-.4612.1786-.4786.4286l-.3656 5.3482c0 .0178-.0087.0268-.0087.0446l-.3307 5.2054c-.0087.1964-.174.3571-.3655.3571h-2.5238c-.1915 0-.3568-.1518-.3655-.3571l-.3307-5.2054c-.0087-.1875-.1393-.3571-.3133-.4107-.0958-.0268-.3743-.1161-.4178-.1607-.0348-.0536-.0522-.3393-.0609-.4821l-.3046-5.5179v-.0089c.5657-.1697 1.1227-.3572 1.6883-.5447.2524.3036.5048.5982.7659.9018l.2698.3125c.087.0982.2089.1607.3394.1607s.2524-.0535.3394-.1607l.3133-.3661c.2524-.2946.4874-.5714.7224-.8571l3.8988.9018a.35.35 0 0 0 .1915 0l3.516-.7411c.2436-.0536.4003-.2946.3481-.5446s-.2872-.4107-.5309-.3572l-3.4202.7232-3.8467-.8928c-.0174-.0089-.0435-.0089-.0609-.0089-.1132-.009-.4961-.0179-.7311.2678a65 65 0 0 1-.7397.875 65 65 0 0 1-.7397-.875c-.2263-.2678-.5135-.3571-.8268-.25a70 70 0 0 1-1.8015.5893c-.3829.125-.5918.4196-.5918.8214v.1072l.2959 5.4464.0087.0893c.0522.7946.1654 1.0982.8181 1.3571l.3133 4.9018c.0435.6786.6005 1.2143 1.2619 1.2143h2.5238c.6614 0 1.2184-.5357 1.2619-1.2143l.3307-5.1607c0-.0179 0-.0268.0087-.0446l.3656-5.3929c0-.2589-.1828-.4821-.4265-.5"
        />
        <path
            fill="currentColor"
            d="M32.5474 11.5H15.9511c-.2437 0-.4526.2054-.4526.4643s.2002.4643.4526.4643h16.1438v11.9643H20.1894c-.2437 0-.4526.2053-.4526.4642 0 .25.2002.4643.4526.4643h12.358c.2437 0 .4526-.2053.4526-.4643V11.9643c0-.25-.2002-.4643-.4526-.4643"
        />
    </symbol>
    <symbol fill="none" viewBox="0 0 45 45">
        <path
            fill="currentColor"
            d="M15.9511 18.3661c1.3054 0 2.3759-1.0893 2.3759-2.4375s-1.0618-2.4375-2.3759-2.4375-2.3672 1.0982-2.3672 2.4375 1.0618 2.4375 2.3672 2.4375m0-3.9465c.8094 0 1.4795.6786 1.4795 1.5179s-.6614 1.5179-1.4795 1.5179-1.4795-.6786-1.4795-1.5179.6701-1.5179 1.4795-1.5179M18.7621 21.1875c-.2437-.0179-.4612.1786-.4786.4286l-.3656 5.3482c0 .0178-.0087.0268-.0087.0446l-.3307 5.2054c-.0087.1964-.174.3571-.3655.3571h-2.5238c-.1915 0-.3568-.1518-.3655-.3571l-.3307-5.2054c-.0087-.1875-.1393-.3571-.3133-.4107-.0958-.0268-.3743-.1161-.4178-.1607-.0348-.0536-.0522-.3393-.0609-.4821l-.3046-5.5179v-.0089c.5657-.1697 1.1227-.3572 1.6883-.5447.2524.3036.5048.5982.7659.9018l.2698.3125c.087.0982.2089.1607.3394.1607s.2524-.0535.3394-.1607l.3133-.3661c.2524-.2946.4874-.5714.7224-.8571l3.8988.9018a.35.35 0 0 0 .1915 0l3.516-.7411c.2436-.0536.4003-.2946.3481-.5446s-.2872-.4107-.5309-.3572l-3.4202.7232-3.8467-.8928c-.0174-.0089-.0435-.0089-.0609-.0089-.1132-.009-.4961-.0179-.7311.2678a65 65 0 0 1-.7397.875 65 65 0 0 1-.7397-.875c-.2263-.2678-.5135-.3571-.8268-.25a70 70 0 0 1-1.8015.5893c-.3829.125-.5918.4196-.5918.8214v.1072l.2959 5.4464.0087.0893c.0522.7946.1654 1.0982.8181 1.3571l.3133 4.9018c.0435.6786.6005 1.2143 1.2619 1.2143h2.5238c.6614 0 1.2184-.5357 1.2619-1.2143l.3307-5.1607c0-.0179 0-.0268.0087-.0446l.3656-5.3929c0-.2589-.1828-.4821-.4265-.5"
        />
        <path
            fill="currentColor"
            d="M32.5474 11.5H15.9511c-.2437 0-.4526.2054-.4526.4643s.2002.4643.4526.4643h16.1438v11.9643H20.1894c-.2437 0-.4526.2053-.4526.4642 0 .25.2002.4643.4526.4643h12.358c.2437 0 .4526-.2053.4526-.4643V11.9643c0-.25-.2002-.4643-.4526-.4643"
        />
    </symbol>
    <symbol id="meeting" fill="none" viewBox="0 0 45 45">
        <path
            fill="currentColor"
            d="m17.9444 26.921-1.2218-.1839-.3171-3.3088c-.0933-1.4706-1.371-2.5919-2.8633-2.5s-2.6301 1.3511-2.5369 2.8401l.3358 3.4651c.0653 1.0477.7461 1.9577 1.7348 2.3253.2611.1287.5502.1838.8487.1747l2.5648.1194c.2612.0092.4757-.1838.485-.4319.0094-.2482-.1865-.4688-.4383-.478l-2.5928-.1195h-.0467a.82.82 0 0 1-.4197-.0827c-.0186-.0092-.0373-.0184-.0559-.0184-.6622-.2389-1.1192-.8456-1.1659-1.5533l-.3264-3.4742c-.056-.9651.6902-1.7923 1.6695-1.8567.9886-.0551 1.8187.6802 1.884 1.6544l.3357 3.4651v.1563c-.0093.2298.1586.4228.3917.4595l1.5949.2482a.3884.3884 0 0 1 .3358.386v3.8327c0 .2482.2052.4596.4663.4596.2518 0 .4663-.2022.4663-.4596v-3.8327c-.0186-.6434-.485-1.1856-1.1285-1.2867M13.8686 19.8805c1.3338 0 2.425-1.0754 2.425-2.3897s-1.0912-2.3897-2.425-2.3897-2.4249 1.0754-2.4249 2.3897 1.0912 2.3897 2.4249 2.3897m0-3.8695c.8301 0 1.5016.6618 1.5016 1.4798s-.6715 1.4798-1.5016 1.4798c-.83 0-1.5016-.6618-1.5016-1.4798s.6809-1.4798 1.5016-1.4798M31.4495 20.9283c-1.483-.0919-2.7701 1.0294-2.8633 2.4816l-.3171 3.3272-1.2218.1839c-.6436.1011-1.1192.6433-1.1192 1.2867v3.8327c0 .2482.2051.4596.4663.4596s.4663-.2022.4663-.4596v-3.8327c0-.193.1399-.3492.3358-.386l1.5948-.2482c.2332-.0367.4011-.2297.3918-.4595v-.1379l.3357-3.4926c.056-.9651.8954-1.7004 1.884-1.6453.9793.0552 1.7255.8916 1.6695 1.8383l-.3358 3.4926A1.757 1.757 0 0 1 31.58 28.704c-.0186.0092-.0373.0184-.0559.0184a.82.82 0 0 1-.4197.0827h-.0467l-2.5928.1195c-.2518.0092-.457.2298-.4383.478.0093.2481.2238.4503.4849.432l2.5649-.1195c.2891.0092.5876-.046.8487-.1747.9886-.3768 1.6695-1.2867 1.7348-2.3161l.3357-3.4927c.084-1.4522-1.0539-2.7206-2.5461-2.8033M31.123 19.8805c1.3337 0 2.425-1.0754 2.425-2.3897s-1.0913-2.3897-2.425-2.3897-2.4249 1.0754-2.4249 2.3897 1.0819 2.3897 2.4249 2.3897m0-3.8695c.8301 0 1.5016.6618 1.5016 1.4798s-.6715 1.4798-1.5016 1.4798-1.5016-.6618-1.5016-1.4798.6715-1.4798 1.5016-1.4798M27.2804 18.75v-5.7629c0-.2665-.2238-.4871-.4943-.4871h-8.5805c-.2705 0-.4944.2206-.4944.4871V18.75c0 .2665.2239.4871.4944.4871h2.3969l1.5669 1.5441c.0933.092.2052.1379.3264.1379s.2332-.0459.3265-.1379l1.5668-1.5441h2.397c.2798 0 .4943-.2206.4943-.4871m-.9233-.4228h-2.1638c-.1213 0-.2425.046-.3264.1379l-1.3711 1.3511-1.371-1.3603c-.0839-.0827-.2052-.1379-.3264-.1379h-2.1638v-4.8989h7.7225z"
        />
    </symbol>
    <symbol id="icon-desk" fill="none" viewBox="0 0 45 45">
        <path
            fill="currentColor"
            d="M33.1235 21.3399h-1.9681v-.1802c.2561-.0146.5221-.073.7355-.2142.2184-.1437.4017-.3531.4569-.6112.0552-.2484.0176-.5041-.113-.7233-.1431-.241-.374-.4018-.6351-.5016-.2359-.0925-.4945-.0731-.7505-.0877-.0226 0-1.2728-.0073-1.8752-.0073-.2033 0-.3766.168-.3766.3653v1.9578h-8.8562v-1.405h2.9822c.4293 0 .846.0121 1.1974-.2874.4443-.3799.4067-.8961.4067-1.4123v-4.0374c0-.5431.0251-1.0812-.4845-1.4489-.3464-.2508-.733-.2313-1.1372-.2313-.5246 0-7.7893-.0341-8.6177 0-.5523.0219-1.1397.353-1.1623.9009-.02.4554-.0878 5.2452 0 5.6202.1205.5065.5548.828 1.0669.8889.0301.0073 2.3597.0121 3.4918.0121v1.4051h-5.608c-.2033 0-.3765.168-.3765.3652v10.4271c0 .47.7531.47.7531 0v-7.0691h12.5262v7.0691c0 .1973.1732.3653.3766.3653h7.9676c.2033 0 .3765-.168.3765-.3653V21.7052c0-.1972-.1732-.3653-.3765-.3653m-1.5087-1.2857c0 .2289-.1305.3775-.4594.3775v-.6819h.0025c.2937 0 .4569.078.4569.3044m-1.9379-.3068h.7254v1.5925h-1.0518V20.064c0-.1754.1456-.3166.3264-.3166m3.07 2.625v1.9603h-7.2145v-2.2598h6.9032c.1707 0 .3113.1339.3113.302zm-18.3752-9.1462c.7556-.0049 7.2999.0097 8.7257.0195.4419.0024.4795.3433.4795.6794v3.358h-9.9231v-3.4262c0-.4115.2561-.6283.7179-.6307m-.7179 4.7874h9.9281c.0076.2533.0126.5089-.005.7573-.0326.4213-.3816.4335-.7104.4335h-8.7734c-.5372-.0268-.4393-.4091-.4393-1.1932zm4.5888 1.9237h.7455v1.4051h-.7455zm-5.9895 4.3954v-1.9603c0-.1656.138-.3019.3113-.3019h12.2149v2.2597H12.2531zm20.4913.7305v2.1039h-7.2145v-2.1039zm-7.2145 6.4019v-3.5674h7.2145v3.5674c0 .1656-.1381.3019-.3113.3019h-6.5919c-.1707 0-.3113-.1339-.3113-.3019"
        />
        <path
            fill="currentColor"
            d="M28.1632 23.5754h2.0258c.1958 0 .3865-.1681.3765-.3653s-.1657-.3653-.3765-.3653h-2.0258c-.1958 0-.3866.1681-.3766.3653s.1657.3653.3766.3653M28.1632 26.4804h2.0258c.1958 0 .3865-.168.3765-.3652s-.1657-.3653-.3765-.3653h-2.0258c-.1958 0-.3866.168-.3766.3653.0101.1972.1657.3652.3766.3652M30.1864 28.6404h-2.0257c-.1958 0-.3866.168-.3766.3652s.1657.3653.3766.3653h2.0257c.1958 0 .3866-.168.3766-.3653-.0101-.1972-.1657-.3652-.3766-.3652"
        />
    </symbol>
    <symbol id="teem" fill="none" viewBox="0 0 45 45">
        <path
            fill="currentColor"
            d="M22.5 18.3824c1.5232 0 2.7619-1.3195 2.7619-2.9412S24.0232 12.5 22.5 12.5s-2.7619 1.3194-2.7619 2.9412 1.2387 2.9412 2.7619 2.9412m0-4.7059c.7485 0 1.381.8082 1.381 1.7647s-.6325 1.7647-1.381 1.7647-1.381-.8083-1.381-1.7647c0-.9565.6325-1.7647 1.381-1.7647m-11.0476 6.4706c1.5232 0 2.7619-1.3195 2.7619-2.9412s-1.2387-2.9412-2.7619-2.9412-2.762 1.3194-2.762 2.9412 1.2388 2.9412 2.762 2.9412m0-4.7059c.7485 0 1.3809.8082 1.3809 1.7647s-.6324 1.7647-1.3809 1.7647-1.381-.8082-1.381-1.7647.6325-1.7647 1.381-1.7647m22.7857 4.7059c1.5232 0 2.7619-1.3195 2.7619-2.9412s-1.2387-2.9412-2.7619-2.9412-2.7619 1.3194-2.7619 2.9412 1.2387 2.9412 2.7619 2.9412m0-4.7059c.7485 0 1.3809.8082 1.3809 1.7647s-.6324 1.7647-1.3809 1.7647-1.381-.8082-1.381-1.7647.6325-1.7647 1.381-1.7647m-17.2619 8.2353V22.5c0-1.6218 1.5487-2.9412 3.4524-2.9412h4.1428c1.9037 0 3.4524 1.3194 3.4524 2.9412v1.1765c0 .3253-.3086.5882-.6905.5882-.3818 0-.6904-.2629-.6904-.5882V22.5c0-.9729-.9294-1.7647-2.0715-1.7647h-4.1428c-1.1421 0-2.0715.7918-2.0715 1.7647v1.1765c0 .3253-.3093.5882-.6904.5882s-.6905-.2629-.6905-.5882m14.5 6.4706v.5882c0 .9729-.9294 1.7647-2.0714 1.7647H15.5952c-1.142 0-2.0714-.7918-2.0714-1.7647v-.5882c0-.3253.3093-.5883.6905-.5883s.6905.263.6905.5883v.5882c0 .3247.31.5882.6904.5882h13.8096c.3811 0 .6904-.2635.6904-.5882v-.5882c0-.3253.3087-.5883.6905-.5883s.6905.263.6905.5883m-8.2857-4.7059c.3818 0 .6905.2629.6905.5882s-.3087.5882-.6905.5882h-1.381c-.3811 0-.6905-.2629-.6905-.5882s.3094-.5882.6905-.5882zm-7.4123 3.5294c-1.2062 0-2.34-.5477-2.9601-1.4282l-1.267-1.7989c-.1961-.2788-.0904-.64.2369-.807s.7512-.0771.9473.2017l1.267 1.7989c.3715.5282 1.0523.857 1.7759.857h2.5789c.3805 0 .6905-.2635.6905-.5882s-.31-.5883-.6905-.5883h-1.6702c-.4944 0-.9536-.227-1.1994-.5929l-1.7676-2.6353c-.3687-.5488-1.0578-.8894-1.7987-.8894h-1.8498c-.3804 0-.6905.2641-.6905.5882v6.4706c0 .1841.103.36.2755.47l2.2103 1.4124c.3052.1947.3666.5635.1381.8229-.1354.1547-.3432.2359-.5531.2359-.1436 0-.2893-.0382-.4136-.1176l-2.2095-1.4118C8.31 30.6394 8 30.1118 8 29.5588v-6.4706c0-.9729.9294-1.7647 2.0714-1.7647h1.8498c1.236 0 2.3842.5677 2.9974 1.4824l1.7676 2.6353h1.6709c1.1421 0 2.0715.7917 2.0715 1.7647s-.9294 1.7647-2.0715 1.7647zM37 23.0882v6.4706c0 .5524-.3093 1.0806-.8286 1.4112l-2.2095 1.4118c-.1243.0794-.2693.1176-.4136.1176-.2106 0-.417-.0812-.5531-.2353-.2292-.2594-.1671-.6282.1381-.8229l2.2096-1.4118c.1733-.1106.2761-.2865.2761-.4706v-6.4706c0-.3241-.3093-.5882-.6904-.5882h-1.8498c-.7416 0-1.4307.3406-1.798.8894l-1.7683 2.6353c-.2445.3653-.7036.5929-1.1987.5929h-1.6709c-.3812 0-.6905.2636-.6905.5883s.3093.5882.6905.5882h2.5789c.7236 0 1.4037-.3288 1.7759-.857l1.267-1.7989c.1961-.2788.6201-.3694.9473-.2017.3273.167.433.5282.2369.807l-1.267 1.7989c-.6194.8805-1.7545 1.4282-2.9601 1.4282h-2.5789c-1.1421 0-2.0715-.7918-2.0715-1.7647s.9294-1.7647 2.0715-1.7647h1.6709l1.7683-2.6353c.6132-.9141 1.7614-1.4824 2.9974-1.4824h1.8491c1.142 0 2.0714.7918 2.0714 1.7647"
        />
    </symbol>
    <symbol viewBox="0 0 45 45">
        <path
            d="M30.61 18.9774H28.5318C28.3292 18.9774 28.1318 19.1642 28.1422 19.3834C28.1525 19.6026 28.2097 19.7731 28.7111 19.7894C28.7318 21.4673 28.7188 23.1453 28.7111 24.8232C28.363 24.9666 28.0149 25.1074 27.6616 25.2319C27.5733 24.7095 27.22 24.2522 26.716 24.079C26.2978 23.9355 23.7053 24.0032 22.8897 24.0032V22.9748H25.0457C25.6354 22.9748 26.2017 22.9558 26.7186 22.5959C27.381 22.1331 27.6876 21.3834 27.6876 20.5715C27.6876 20.0573 27.6902 13.2805 27.6876 12.8313C27.6798 11.8759 27.1602 11.0126 26.2926 10.6608C25.8302 10.474 25.3315 10.5092 24.8457 10.5092C24.1054 10.5092 19.4607 10.4686 19.0269 10.5579C18.0138 10.7717 17.328 11.7298 17.3072 12.7826C17.2994 13.1723 17.3072 17.1642 17.3072 18.7718C17.3072 19.9463 17.0734 21.4484 17.9722 22.3415C18.3827 22.7501 18.9152 22.9585 19.4789 22.9748H22.1077V24.0032C21.4609 24.0032 19.2061 23.9842 18.7282 24.0032C18.0398 24.0302 17.4475 24.5309 17.3306 25.2292C16.9799 25.1047 16.6344 24.9639 16.2889 24.8232C16.2812 23.1453 16.2708 21.4673 16.2889 19.7894C16.7617 19.7894 16.8656 19.6026 16.8578 19.3834C16.8474 19.1642 16.6864 18.9774 16.4682 18.9774H14.39C14.1874 18.9774 13.99 19.1642 14.0004 19.3834C14.0108 19.6026 14.1718 19.7894 14.39 19.7894H15.5096C15.4889 21.5593 15.5019 23.3293 15.5096 25.0993C15.5096 25.2941 15.6343 25.424 15.7954 25.4917C16.3409 25.7163 16.8916 25.9463 17.4501 26.1277C17.6839 26.6148 18.1723 26.9423 18.7256 26.9667H21.0739V28.06C21.0739 28.2792 21.2531 28.466 21.4635 28.466H22.1052V30.5607C20.4063 30.5932 18.71 30.853 17.0708 31.3564C16.9072 31.4078 16.7851 31.5675 16.7851 31.7488V32.3956C16.502 32.5228 16.263 32.7664 16.1798 33.0885C16.0733 33.4998 16.2006 34.0303 16.6059 34.3117C16.9306 34.5391 17.3384 34.558 17.6839 34.3821C18.1073 34.1683 18.3151 33.6649 18.2346 33.194C18.1697 32.8151 17.8995 32.512 17.567 32.3767V32.0546C19.0529 31.627 20.5777 31.3997 22.1077 31.3699V32.3821C21.8142 32.5066 21.5804 32.7583 21.4817 33.0858C21.3752 33.4403 21.4843 34.0411 21.9077 34.309C22.2402 34.5201 22.6403 34.5553 22.9858 34.3794C23.3806 34.1791 23.617 33.6622 23.5365 33.1913C23.4741 32.8205 23.2118 32.5228 22.8897 32.3848V31.3699C24.4197 31.4051 25.9445 31.6378 27.4304 32.0546V32.3713C27.1265 32.4904 26.8797 32.7475 26.7836 33.083C26.6953 33.3835 26.729 33.9816 27.2096 34.3063C27.5369 34.5283 27.9421 34.5526 28.2876 34.3767C28.7111 34.1629 28.9189 33.6595 28.8383 33.1886C28.776 32.8259 28.5266 32.5337 28.2123 32.3902V31.738C28.2123 31.5594 28.0902 31.397 27.9266 31.3456C26.2874 30.8557 24.5911 30.5905 22.8922 30.5526V28.4552H23.5339C23.7443 28.4552 23.9235 28.2684 23.9235 28.0492V26.9558C24.3262 26.9558 25.9549 26.9829 26.3627 26.9531C26.8797 26.9152 27.3265 26.5851 27.5447 26.1196C28.1084 25.9355 28.6591 25.7082 29.2046 25.4809C29.3683 25.4132 29.4904 25.2833 29.4904 25.0884C29.4981 23.3185 29.5111 21.5485 29.4904 19.7785H30.61C30.8126 19.7785 31.01 19.5918 30.9996 19.3726C30.9892 19.1534 30.8282 18.9666 30.61 18.9666V18.9774ZM18.0917 20.65C18.0917 20.2386 18.0917 13.7054 18.0917 13.1425C18.0917 12.6283 18.1203 12.1439 18.4996 11.7487C18.897 11.3346 19.3854 11.3238 19.9023 11.3238C20.5336 11.3238 24.2327 11.3157 25.4484 11.3238C26.2485 11.3292 26.8953 11.9219 26.9109 12.7744C26.9161 13.064 26.9498 20.7339 26.8719 21.0586C26.6927 21.811 26.0588 22.1655 25.36 22.1655H19.4815C18.6684 22.1655 18.0943 21.4808 18.0891 20.65H18.0917ZM17.2033 33.6866C17.0527 33.6866 16.928 33.5594 16.928 33.3997C16.928 33.24 17.0475 33.1128 17.2033 33.1128C17.3488 33.1128 17.4787 33.2373 17.4787 33.3997C17.4787 33.5513 17.3618 33.6866 17.2033 33.6866ZM27.7993 33.6866C27.6382 33.6866 27.5213 33.5513 27.5213 33.3997C27.5213 33.2319 27.6564 33.1128 27.7993 33.1128C27.9577 33.1128 28.0746 33.2427 28.0746 33.3997C28.0746 33.5377 27.9681 33.6866 27.7993 33.6866ZM22.5 33.6866C22.3649 33.6866 22.2246 33.5783 22.2246 33.4132C22.2246 33.2481 22.3389 33.1128 22.5 33.1128C22.6455 33.1128 22.7754 33.2265 22.7754 33.4132C22.7754 33.5621 22.6481 33.6866 22.5 33.6866ZM22.9572 27.6514H22.0428C21.9415 27.6514 21.8584 27.5648 21.8584 27.4592V26.9639H23.139V27.4592C23.139 27.5648 23.0559 27.6514 22.9546 27.6514H22.9572ZM26.2225 26.152C24.9938 26.171 19.9958 26.152 18.7282 26.152C18.1619 26.1277 17.8553 25.3942 18.3047 24.9829C18.4658 24.834 18.6554 24.8178 18.8555 24.8178C19.349 24.8178 25.8588 24.8016 26.2485 24.8178C27.1161 24.853 27.0849 26.1412 26.2199 26.152H26.2225Z"
            fill="currentColor"
        />
    </symbol>
    <symbol id="working-place" fill="none" viewBox="0 0 45 45">
        <path
            fill="currentColor"
            d="M30.61 18.977h-2.078c-.203 0-.4.187-.39.406s.068.39.57.406c.02 1.678.007 3.356 0 5.034-.349.144-.697.284-1.05.409-.089-.523-.442-.98-.946-1.153-.418-.143-3.01-.076-3.826-.076v-1.028h2.156c.59 0 1.156-.02 1.673-.38.662-.462.969-1.212.969-2.023 0-.515.002-7.291 0-7.74-.008-.956-.528-1.82-1.395-2.171-.463-.187-.962-.152-1.447-.152-.74 0-5.385-.04-5.82.049-1.012.214-1.698 1.172-1.719 2.225-.008.39 0 4.381 0 5.989 0 1.174-.234 2.676.665 3.57.41.408.943.617 1.507.633h2.629v1.028c-.647 0-2.902-.019-3.38 0a1.47 1.47 0 0 0-1.397 1.226c-.351-.124-.697-.265-1.042-.406-.008-1.678-.018-3.356 0-5.034.473 0 .577-.186.569-.406-.01-.219-.172-.406-.39-.406H14.39c-.203 0-.4.187-.39.406s.172.406.39.406h1.12c-.021 1.77-.008 3.54 0 5.31 0 .195.124.325.285.393.546.224 1.097.454 1.655.636.234.487.722.814 1.276.839h2.348v1.093c0 .22.18.406.39.406h.641v2.095a18.3 18.3 0 0 0-5.034.795.415.415 0 0 0-.286.393v.647c-.283.127-.522.37-.605.693-.107.41.02.941.426 1.223a1.04 1.04 0 0 0 1.078.07c.423-.214.631-.717.55-1.188a1.1 1.1 0 0 0-.667-.817v-.322a17.7 17.7 0 0 1 4.54-.685v1.012a1.1 1.1 0 0 0-.625.704c-.107.354.002.955.426 1.223.332.211.732.246 1.078.07.395-.2.631-.717.55-1.188a1.09 1.09 0 0 0-.646-.806V31.37a18.4 18.4 0 0 1 4.54.685v.316c-.303.12-.55.377-.646.712-.089.3-.055.899.426 1.223.327.222.732.247 1.078.07.423-.213.63-.716.55-1.187a1.09 1.09 0 0 0-.626-.799v-.652a.42.42 0 0 0-.285-.392 19 19 0 0 0-5.035-.793v-2.098h.642c.21 0 .39-.187.39-.406v-1.093c.402 0 2.03.027 2.439-.003a1.43 1.43 0 0 0 1.182-.833 23 23 0 0 0 1.66-.64c.163-.067.285-.197.285-.392.008-1.77.021-3.54 0-5.31h1.12c.203 0 .4-.186.39-.405s-.172-.406-.39-.406zM18.092 20.65v-7.507c0-.515.028-1 .408-1.394.397-.414.885-.425 1.402-.425.632 0 4.33-.008 5.546 0 .8.005 1.447.598 1.463 1.45.005.29.039 7.96-.04 8.285-.178.752-.812 1.107-1.511 1.107h-5.878c-.814 0-1.388-.685-1.393-1.516zm-.889 13.037a.28.28 0 0 1-.275-.287c0-.16.12-.287.275-.287.146 0 .276.124.276.287a.28.28 0 0 1-.276.287m10.596 0a.28.28 0 0 1-.278-.287c0-.168.135-.287.278-.287.159 0 .276.13.276.287 0 .138-.107.287-.276.287m-5.299 0a.276.276 0 0 1-.275-.274c0-.165.114-.3.275-.3.145 0 .275.114.275.3a.28.28 0 0 1-.275.274m.457-6.036h-.914a.19.19 0 0 1-.185-.192v-.495h1.281v.495a.19.19 0 0 1-.184.192zm3.265-1.499c-1.228.019-6.226 0-7.494 0-.566-.024-.873-.758-.423-1.17.16-.148.35-.164.55-.164.494 0 7.004-.016 7.393 0 .868.035.837 1.323-.028 1.334z"
        />
    </symbol>
</svg>