<svg width="40" height="40" viewBox="0 0 40 40" fill="none" xmlns="http://www.w3.org/2000/svg">
    <path
        d="M21.2148 20.5005C22.4263 20.5005 23.6105 20.1486 24.6177 19.4893C25.625 18.83 26.41 17.8929 26.8736 16.7966C27.3372 15.7002 27.4585 14.4938 27.2222 13.3299C26.9858 12.1661 26.4025 11.097 25.5459 10.2579C24.6893 9.41874 23.5979 8.84729 22.4098 8.61578C21.2216 8.38427 19.9901 8.50309 18.8709 8.95721C17.7517 9.41134 16.7951 10.1804 16.1221 11.1671C15.4491 12.1538 15.0898 13.3138 15.0898 14.5005C15.0898 16.0918 15.7352 17.6179 16.8838 18.7431C18.0325 19.8683 19.5904 20.5005 21.2148 20.5005ZM21.2148 10.2148C22.0801 10.2148 22.926 10.4661 23.6455 10.937C24.3649 11.408 24.9257 12.0773 25.2568 12.8604C25.5879 13.6435 25.6746 14.5052 25.5058 15.3366C25.337 16.1679 24.9203 16.9316 24.3084 17.5309C23.6966 18.1303 22.917 18.5385 22.0684 18.7039C21.2197 18.8692 20.34 18.7843 19.5406 18.46C18.7412 18.1356 18.0579 17.5863 17.5772 16.8815C17.0964 16.1767 16.8398 15.3481 16.8398 14.5005C16.8398 13.3638 17.3008 12.2738 18.1213 11.47C18.9417 10.6663 20.0545 10.2148 21.2148 10.2148Z"
        fill="#47433F" />
    <path
        d="M22.0898 22.2148H20.3398C17.7871 22.2148 15.339 23.2081 13.5339 24.9763C11.7289 26.7445 10.7148 29.1427 10.7148 31.6433C10.7148 31.8707 10.807 32.0887 10.9711 32.2494C11.1352 32.4102 11.3578 32.5005 11.5898 32.5005H30.8398C31.0719 32.5005 31.2945 32.4102 31.4586 32.2494C31.6227 32.0887 31.7148 31.8707 31.7148 31.6433C31.7148 29.1427 30.7008 26.7445 28.8957 24.9763C27.0907 23.2081 24.6426 22.2148 22.0898 22.2148ZM12.5173 30.7862C12.7325 28.901 13.6492 27.1596 15.0922 25.8947C16.5352 24.6297 18.4034 23.93 20.3398 23.9291H22.0898C24.0263 23.93 25.8945 24.6297 27.3375 25.8947C28.7805 27.1596 29.6972 28.901 29.9123 30.7862H12.5173Z"
        fill="#47433F" />
</svg>